# File created by Blade
# Date/Time:  Wed Sep 24 19:10:19 2014
# Frame Rate: 120.000 fps
#------------------------------------------------------
:FULLY-SPECIFIED
:DEGREES
3082
root -7.422692 33.926815 -4.467358 30.651301 9.537540 27.106678
Spine -11.612586 0.993931 -15.491365
Head -7.963423 25.838465 -5.001173
LeftShoulder -3.817541 8.419930 13.076973
LeftArm 31.311991 -15.378395 -82.878356
LeftForeArm 8.507670 -0.000000 83.150391
LeftHand -28.271019 -0.000000 31.446270
LeftHandThumb1 -26.253704 0.000000 33.147579
RightShoulder -15.010247 10.594890 -23.335826
RightArm -17.208628 -19.997213 77.491762
RightForeArm -21.864307 -0.000000 32.560993
RightHand -4.257339 -0.000000 10.324576
RightHandThumb1 -24.326973 -0.000000 -32.862282
LeftUpLeg -31.811229 4.871884 21.985144
LeftLeg 110.830351 -0.000000 -0.000000
LeftFoot 39.004268 5.840900 -14.575382
LeftToeBase 6.141256 -0.000000 -0.000000
RightUpLeg -34.952277 -14.955635 -16.618055
RightLeg 23.395163 -0.000000 -0.000000
RightFoot -12.233006 -21.399237 -6.536475
RightToeBase -2.325234 -0.000000 0.000000
3083
root -7.423098 33.922015 -4.454554 30.646035 9.775914 27.120558
Spine -11.621179 0.952503 -15.455492
Head -7.891257 25.576969 -4.911018
LeftShoulder -3.809859 8.398261 13.069527
LeftArm 31.235946 -15.417651 -82.840285
LeftForeArm 8.389220 -0.000000 83.064570
LeftHand -28.201136 0.000000 31.410581
LeftHandThumb1 -26.253704 0.000000 33.147579
RightShoulder -14.989993 10.628431 -23.320359
RightArm -17.199297 -20.097032 77.497664
RightForeArm -21.821740 -0.000000 32.566919
RightHand -4.242657 0.000000 10.499490
RightHandThumb1 -24.326973 -0.000000 -32.862282
LeftUpLeg -31.826744 4.771657 22.046163
LeftLeg 110.417429 -0.000000 -0.000000
LeftFoot 38.747535 5.931316 -14.638304
LeftToeBase 6.252355 -0.000000 -0.000000
RightUpLeg -34.841934 -15.011026 -16.595775
RightLeg 23.450073 -0.000000 -0.000000
RightFoot -12.285861 -21.537164 -6.503047
RightToeBase -2.324878 -0.000000 0.000000
3084
root -7.423303 33.918668 -4.442588 30.652641 9.987885 27.147463
Spine -11.641299 0.930014 -15.461015
Head -7.832256 25.357537 -4.796417
LeftShoulder -3.824863 8.423560 13.047452
LeftArm 31.258637 -15.430486 -82.804374
LeftForeArm 8.275728 -0.000000 82.942005
LeftHand -28.155365 -0.000000 31.389760
LeftHandThumb1 -26.253704 0.000000 33.147579
RightShoulder -15.002148 10.629551 -23.290121
RightArm -17.159764 -20.191717 77.499088
RightForeArm -21.808206 -0.000000 32.597674
RightHand -4.275056 -0.000000 10.442192
RightHandThumb1 -24.326973 -0.000000 -32.862282
LeftUpLeg -31.845163 4.643990 22.095903
LeftLeg 110.020616 -0.000000 -0.000000
LeftFoot 38.547687 6.070329 -14.660605
LeftToeBase 6.740858 -0.000000 -0.000000
RightUpLeg -34.756420 -15.106010 -16.568849
RightLeg 23.503231 -0.000000 -0.000000
RightFoot -12.349166 -21.617310 -6.434501
RightToeBase -2.335201 -0.000000 0.000000
3085
root -7.424996 33.913917 -4.431725 30.672818 10.157371 27.145349
Spine -11.702808 0.973109 -15.485293
Head -7.733282 25.141144 -4.599560
LeftShoulder -3.824647 8.446289 13.043260
LeftArm 31.273731 -15.405857 -82.738623
LeftForeArm 8.141094 -0.000000 82.840907
LeftHand -27.999838 0.000000 31.166799
LeftHandThumb1 -26.253704 0.000000 33.147579
RightShoulder -15.021810 10.654372 -23.261850
RightArm -17.151531 -20.253405 77.493030
RightForeArm -21.829953 0.000000 32.590148
RightHand -4.178573 -0.000000 10.479966
RightHandThumb1 -24.326973 -0.000000 -32.862282
LeftUpLeg -31.853878 4.533251 22.192150
LeftLeg 109.645218 -0.000000 -0.000000
LeftFoot 38.523577 6.072157 -14.602553
LeftToeBase 6.497303 -0.000000 -0.000000
RightUpLeg -34.715321 -15.133390 -16.534453
RightLeg 23.572804 -0.000000 -0.000000
RightFoot -12.421848 -21.719030 -6.393233
RightToeBase -2.231794 -0.000000 0.000000
3086
root -7.423751 33.909847 -4.420762 30.684594 10.337937 27.175129
Spine -11.742811 0.995444 -15.531453
Head -7.676708 24.894790 -4.442641
LeftShoulder -3.825492 8.511234 13.027391
LeftArm 31.344068 -15.396393 -82.685944
LeftForeArm 8.150986 -0.000000 82.720735
LeftHand -27.986986 0.000000 31.047977
LeftHandThumb1 -26.253704 0.000000 33.147579
RightShoulder -15.029531 10.666115 -23.224316
RightArm -17.131758 -20.330595 77.470818
RightForeArm -21.735777 -0.000000 32.603685
RightHand -4.199022 -0.000000 10.482656
RightHandThumb1 -24.326973 -0.000000 -32.862282
LeftUpLeg -31.842348 4.362969 22.276954
LeftLeg 109.298779 -0.000000 -0.000000
LeftFoot 38.488990 6.144879 -14.495915
LeftToeBase 6.392174 -0.000000 -0.000000
RightUpLeg -34.643596 -15.169476 -16.534262
RightLeg 23.631179 -0.000000 -0.000000
RightFoot -12.471018 -21.865643 -6.354650
RightToeBase -2.216530 -0.000000 0.000000
